<mxfile host="app.diagrams.net" modified="2021-06-15T09:26:41.335Z" agent="5.0 (Windows NT 10.0; Win64; x64) AppleWebKit/537.36 (KHTML, like Gecko) Chrome/91.0.4472.77 Safari/537.36" etag="W0wo7nkD6ZMH5-SFehMf" version="14.7.7" type="github">
  <diagram id="6a731a19-8d31-9384-78a2-239565b7b9f0" name="Page-1">
    <mxGraphModel dx="868" dy="394" grid="1" gridSize="10" guides="1" tooltips="1" connect="1" arrows="1" fold="1" page="1" pageScale="1" pageWidth="1169" pageHeight="827" background="none" math="0" shadow="0">
      <root>
        <mxCell id="0" />
        <mxCell id="1" parent="0" />
        <mxCell id="2" value="start" style="shape=mxgraph.flowchart.terminator;strokeWidth=2;gradientColor=none;gradientDirection=north;fontStyle=0;html=1;" parent="1" vertex="1">
          <mxGeometry x="260" y="60" width="120" height="30" as="geometry" />
        </mxCell>
        <mxCell id="7" style="fontStyle=1;strokeColor=#003366;strokeWidth=1;html=1;" parent="1" source="2" edge="1">
          <mxGeometry relative="1" as="geometry">
            <mxPoint x="320" y="130" as="targetPoint" />
          </mxGeometry>
        </mxCell>
        <mxCell id="8" style="fontStyle=1;strokeColor=#003366;strokeWidth=1;html=1;entryX=0.5;entryY=0;entryDx=0;entryDy=0;" parent="1" target="7k5Ew4gkaEUzjefBMza6-63" edge="1">
          <mxGeometry relative="1" as="geometry">
            <mxPoint x="319" y="210" as="sourcePoint" />
            <mxPoint x="319" y="250" as="targetPoint" />
          </mxGeometry>
        </mxCell>
        <mxCell id="9" style="entryX=0.5;entryY=0;entryPerimeter=0;fontStyle=1;strokeColor=#003366;strokeWidth=1;html=1;exitX=0.5;exitY=1;exitDx=0;exitDy=0;" parent="1" source="7k5Ew4gkaEUzjefBMza6-63" edge="1">
          <mxGeometry relative="1" as="geometry">
            <mxPoint x="320" y="330" as="sourcePoint" />
            <mxPoint x="320" y="390" as="targetPoint" />
            <Array as="points">
              <mxPoint x="320" y="320" />
            </Array>
          </mxGeometry>
        </mxCell>
        <mxCell id="12" value="" style="edgeStyle=elbowEdgeStyle;elbow=horizontal;fontColor=#001933;fontStyle=1;strokeColor=#003366;strokeWidth=1;html=1;" parent="1" edge="1">
          <mxGeometry width="100" height="100" as="geometry">
            <mxPoint x="320" y="447" as="sourcePoint" />
            <mxPoint x="320" y="510" as="targetPoint" />
          </mxGeometry>
        </mxCell>
        <mxCell id="17" value="" style="edgeStyle=elbowEdgeStyle;elbow=horizontal;fontStyle=1;strokeColor=#003366;strokeWidth=1;html=1;" parent="1" edge="1">
          <mxGeometry width="100" height="100" as="geometry">
            <mxPoint x="320" y="590" as="sourcePoint" />
            <mxPoint x="320" y="640" as="targetPoint" />
          </mxGeometry>
        </mxCell>
        <mxCell id="40" value="end" style="shape=mxgraph.flowchart.terminator;strokeWidth=2;gradientColor=none;gradientDirection=north;fontStyle=0;html=1;" parent="1" vertex="1">
          <mxGeometry x="262" y="1780" width="120" height="30" as="geometry" />
        </mxCell>
        <mxCell id="43" value="" style="edgeStyle=elbowEdgeStyle;elbow=vertical;exitX=0.5;exitY=1;exitPerimeter=0;entryX=0.5;entryY=0;entryPerimeter=0;fontStyle=1;strokeColor=#003366;strokeWidth=1;html=1;" parent="1" target="40" edge="1">
          <mxGeometry x="2" y="-100" width="100" height="100" as="geometry">
            <mxPoint x="322" y="1710" as="sourcePoint" />
            <mxPoint x="102" y="-100" as="targetPoint" />
            <Array as="points">
              <mxPoint x="322" y="1720" />
            </Array>
          </mxGeometry>
        </mxCell>
        <mxCell id="45" value="" style="edgeStyle=elbowEdgeStyle;elbow=horizontal;exitX=1;exitY=0.5;exitPerimeter=0;entryX=0.905;entryY=0.5;entryPerimeter=0;fontStyle=1;strokeColor=#003366;strokeWidth=1;html=1;" parent="1" target="34" edge="1">
          <mxGeometry width="100" height="100" as="geometry">
            <mxPoint x="380.5" y="1119.25" as="sourcePoint" />
            <mxPoint x="100" as="targetPoint" />
            <Array as="points">
              <mxPoint x="950" y="1320" />
            </Array>
          </mxGeometry>
        </mxCell>
        <mxCell id="7k5Ew4gkaEUzjefBMza6-55" value="" style="rhombus;whiteSpace=wrap;html=1;" vertex="1" parent="1">
          <mxGeometry x="280" y="130" width="80" height="80" as="geometry" />
        </mxCell>
        <mxCell id="7k5Ew4gkaEUzjefBMza6-56" value="是否为非绑定卡转出" style="text;html=1;strokeColor=none;fillColor=none;align=center;verticalAlign=middle;whiteSpace=wrap;rounded=0;" vertex="1" parent="1">
          <mxGeometry x="300" y="160" width="40" height="20" as="geometry" />
        </mxCell>
        <mxCell id="7k5Ew4gkaEUzjefBMza6-64" style="edgeStyle=orthogonalEdgeStyle;rounded=0;orthogonalLoop=1;jettySize=auto;html=1;exitX=0.5;exitY=1;exitDx=0;exitDy=0;entryX=1;entryY=0.5;entryDx=0;entryDy=0;" edge="1" parent="1" source="7k5Ew4gkaEUzjefBMza6-57" target="7k5Ew4gkaEUzjefBMza6-63">
          <mxGeometry relative="1" as="geometry" />
        </mxCell>
        <mxCell id="7k5Ew4gkaEUzjefBMza6-57" value="" style="rounded=0;whiteSpace=wrap;html=1;" vertex="1" parent="1">
          <mxGeometry x="440" y="140" width="120" height="60" as="geometry" />
        </mxCell>
        <mxCell id="7k5Ew4gkaEUzjefBMza6-58" value="转出限制检查" style="text;html=1;strokeColor=none;fillColor=none;align=center;verticalAlign=middle;whiteSpace=wrap;rounded=0;" vertex="1" parent="1">
          <mxGeometry x="455" y="157.5" width="90" height="25" as="geometry" />
        </mxCell>
        <mxCell id="7k5Ew4gkaEUzjefBMza6-59" value="" style="endArrow=classic;html=1;exitX=1;exitY=0.5;exitDx=0;exitDy=0;entryX=0;entryY=0.5;entryDx=0;entryDy=0;" edge="1" parent="1" source="7k5Ew4gkaEUzjefBMza6-55" target="7k5Ew4gkaEUzjefBMza6-57">
          <mxGeometry width="50" height="50" relative="1" as="geometry">
            <mxPoint x="370" y="190" as="sourcePoint" />
            <mxPoint x="420" y="140" as="targetPoint" />
          </mxGeometry>
        </mxCell>
        <mxCell id="7k5Ew4gkaEUzjefBMza6-60" value="是" style="text;html=1;strokeColor=none;fillColor=none;align=center;verticalAlign=middle;whiteSpace=wrap;rounded=0;" vertex="1" parent="1">
          <mxGeometry x="385" y="140" width="40" height="20" as="geometry" />
        </mxCell>
        <mxCell id="7k5Ew4gkaEUzjefBMza6-61" value="否" style="text;html=1;strokeColor=none;fillColor=none;align=center;verticalAlign=middle;whiteSpace=wrap;rounded=0;" vertex="1" parent="1">
          <mxGeometry x="290" y="210" width="40" height="20" as="geometry" />
        </mxCell>
        <mxCell id="7k5Ew4gkaEUzjefBMza6-63" value="" style="rounded=0;whiteSpace=wrap;html=1;" vertex="1" parent="1">
          <mxGeometry x="260" y="260" width="120" height="60" as="geometry" />
        </mxCell>
        <mxCell id="7k5Ew4gkaEUzjefBMza6-65" value="记账引擎规则适配" style="text;html=1;strokeColor=none;fillColor=none;align=center;verticalAlign=middle;whiteSpace=wrap;rounded=0;" vertex="1" parent="1">
          <mxGeometry x="265" y="275" width="110" height="30" as="geometry" />
        </mxCell>
        <mxCell id="7k5Ew4gkaEUzjefBMza6-66" value="" style="rounded=0;whiteSpace=wrap;html=1;" vertex="1" parent="1">
          <mxGeometry x="260" y="390" width="120" height="60" as="geometry" />
        </mxCell>
        <mxCell id="7k5Ew4gkaEUzjefBMza6-67" value="登记支付流水" style="text;html=1;strokeColor=none;fillColor=none;align=center;verticalAlign=middle;whiteSpace=wrap;rounded=0;" vertex="1" parent="1">
          <mxGeometry x="280" y="410" width="90" height="20" as="geometry" />
        </mxCell>
        <mxCell id="7k5Ew4gkaEUzjefBMza6-108" style="edgeStyle=orthogonalEdgeStyle;rounded=0;orthogonalLoop=1;jettySize=auto;html=1;exitX=0;exitY=0.5;exitDx=0;exitDy=0;entryX=0;entryY=0.5;entryDx=0;entryDy=0;" edge="1" parent="1" source="7k5Ew4gkaEUzjefBMza6-68" target="7k5Ew4gkaEUzjefBMza6-103">
          <mxGeometry relative="1" as="geometry">
            <mxPoint x="200" y="550" as="targetPoint" />
            <Array as="points">
              <mxPoint x="180" y="550" />
              <mxPoint x="180" y="1020" />
            </Array>
          </mxGeometry>
        </mxCell>
        <mxCell id="7k5Ew4gkaEUzjefBMza6-68" value="" style="rhombus;whiteSpace=wrap;html=1;" vertex="1" parent="1">
          <mxGeometry x="281" y="510" width="80" height="80" as="geometry" />
        </mxCell>
        <mxCell id="7k5Ew4gkaEUzjefBMza6-69" value="transCode=&lt;br&gt;SI_ACC80002" style="text;html=1;strokeColor=none;fillColor=none;align=center;verticalAlign=middle;whiteSpace=wrap;rounded=0;" vertex="1" parent="1">
          <mxGeometry x="269" y="520" width="106" height="60" as="geometry" />
        </mxCell>
        <mxCell id="7k5Ew4gkaEUzjefBMza6-73" value="否" style="text;html=1;strokeColor=none;fillColor=none;align=center;verticalAlign=middle;whiteSpace=wrap;rounded=0;" vertex="1" parent="1">
          <mxGeometry x="225" y="530" width="40" height="20" as="geometry" />
        </mxCell>
        <mxCell id="7k5Ew4gkaEUzjefBMza6-79" style="edgeStyle=orthogonalEdgeStyle;rounded=0;orthogonalLoop=1;jettySize=auto;html=1;exitX=0.5;exitY=1;exitDx=0;exitDy=0;" edge="1" parent="1" source="7k5Ew4gkaEUzjefBMza6-74" target="7k5Ew4gkaEUzjefBMza6-76">
          <mxGeometry relative="1" as="geometry" />
        </mxCell>
        <mxCell id="7k5Ew4gkaEUzjefBMza6-74" value="" style="rounded=0;whiteSpace=wrap;html=1;" vertex="1" parent="1">
          <mxGeometry x="260" y="640" width="120" height="60" as="geometry" />
        </mxCell>
        <mxCell id="7k5Ew4gkaEUzjefBMza6-75" value="交易状态，通道状态设置" style="text;html=1;strokeColor=none;fillColor=none;align=center;verticalAlign=middle;whiteSpace=wrap;rounded=0;" vertex="1" parent="1">
          <mxGeometry x="281.5" y="665" width="79.5" height="10" as="geometry" />
        </mxCell>
        <mxCell id="7k5Ew4gkaEUzjefBMza6-100" style="edgeStyle=orthogonalEdgeStyle;rounded=0;orthogonalLoop=1;jettySize=auto;html=1;exitX=0.5;exitY=1;exitDx=0;exitDy=0;entryX=0.5;entryY=0;entryDx=0;entryDy=0;" edge="1" parent="1" source="7k5Ew4gkaEUzjefBMza6-76" target="7k5Ew4gkaEUzjefBMza6-98">
          <mxGeometry relative="1" as="geometry" />
        </mxCell>
        <mxCell id="7k5Ew4gkaEUzjefBMza6-76" value="" style="rounded=0;whiteSpace=wrap;html=1;" vertex="1" parent="1">
          <mxGeometry x="235" y="760" width="170" height="60" as="geometry" />
        </mxCell>
        <mxCell id="7k5Ew4gkaEUzjefBMza6-77" value="SI_PAY10020_Transfer调用线上支付系统支付" style="text;html=1;strokeColor=none;fillColor=none;align=center;verticalAlign=middle;whiteSpace=wrap;rounded=0;" vertex="1" parent="1">
          <mxGeometry x="306" y="780" width="40" height="20" as="geometry" />
        </mxCell>
        <mxCell id="7k5Ew4gkaEUzjefBMza6-86" style="edgeStyle=orthogonalEdgeStyle;rounded=0;orthogonalLoop=1;jettySize=auto;html=1;exitX=1;exitY=0.5;exitDx=0;exitDy=0;entryX=0;entryY=0.5;entryDx=0;entryDy=0;" edge="1" parent="1" source="7k5Ew4gkaEUzjefBMza6-80" target="7k5Ew4gkaEUzjefBMza6-84">
          <mxGeometry relative="1" as="geometry" />
        </mxCell>
        <mxCell id="7k5Ew4gkaEUzjefBMza6-89" style="edgeStyle=orthogonalEdgeStyle;rounded=0;orthogonalLoop=1;jettySize=auto;html=1;entryX=0.5;entryY=0;entryDx=0;entryDy=0;" edge="1" parent="1" source="7k5Ew4gkaEUzjefBMza6-80" target="7k5Ew4gkaEUzjefBMza6-88">
          <mxGeometry relative="1" as="geometry" />
        </mxCell>
        <mxCell id="7k5Ew4gkaEUzjefBMza6-80" value="" style="rhombus;whiteSpace=wrap;html=1;" vertex="1" parent="1">
          <mxGeometry x="425" y="870" width="80" height="80" as="geometry" />
        </mxCell>
        <mxCell id="7k5Ew4gkaEUzjefBMza6-81" value="他行卡充值成功" style="text;html=1;strokeColor=none;fillColor=none;align=center;verticalAlign=middle;whiteSpace=wrap;rounded=0;" vertex="1" parent="1">
          <mxGeometry x="447" y="900" width="40" height="20" as="geometry" />
        </mxCell>
        <mxCell id="7k5Ew4gkaEUzjefBMza6-84" value="" style="ellipse;whiteSpace=wrap;html=1;" vertex="1" parent="1">
          <mxGeometry x="570" y="890" width="75" height="40" as="geometry" />
        </mxCell>
        <mxCell id="7k5Ew4gkaEUzjefBMza6-85" value="end" style="text;html=1;strokeColor=none;fillColor=none;align=center;verticalAlign=middle;whiteSpace=wrap;rounded=0;" vertex="1" parent="1">
          <mxGeometry x="588" y="900" width="37" height="20" as="geometry" />
        </mxCell>
        <mxCell id="7k5Ew4gkaEUzjefBMza6-87" value="否" style="text;html=1;strokeColor=none;fillColor=none;align=center;verticalAlign=middle;whiteSpace=wrap;rounded=0;" vertex="1" parent="1">
          <mxGeometry x="515" y="890" width="40" height="20" as="geometry" />
        </mxCell>
        <mxCell id="7k5Ew4gkaEUzjefBMza6-94" style="edgeStyle=orthogonalEdgeStyle;rounded=0;orthogonalLoop=1;jettySize=auto;html=1;entryX=0.5;entryY=0;entryDx=0;entryDy=0;" edge="1" parent="1" source="7k5Ew4gkaEUzjefBMza6-88" target="7k5Ew4gkaEUzjefBMza6-92">
          <mxGeometry relative="1" as="geometry" />
        </mxCell>
        <mxCell id="7k5Ew4gkaEUzjefBMza6-88" value="" style="rounded=0;whiteSpace=wrap;html=1;" vertex="1" parent="1">
          <mxGeometry x="405" y="990" width="120" height="60" as="geometry" />
        </mxCell>
        <mxCell id="7k5Ew4gkaEUzjefBMza6-90" value="更新电子账户在途金额" style="text;html=1;strokeColor=none;fillColor=none;align=center;verticalAlign=middle;whiteSpace=wrap;rounded=0;" vertex="1" parent="1">
          <mxGeometry x="431" y="1010" width="70" height="20" as="geometry" />
        </mxCell>
        <mxCell id="7k5Ew4gkaEUzjefBMza6-91" value="是" style="text;html=1;strokeColor=none;fillColor=none;align=center;verticalAlign=middle;whiteSpace=wrap;rounded=0;" vertex="1" parent="1">
          <mxGeometry x="431" y="960" width="40" height="20" as="geometry" />
        </mxCell>
        <mxCell id="7k5Ew4gkaEUzjefBMza6-92" value="" style="ellipse;whiteSpace=wrap;html=1;" vertex="1" parent="1">
          <mxGeometry x="427.5" y="1100" width="75" height="40" as="geometry" />
        </mxCell>
        <mxCell id="7k5Ew4gkaEUzjefBMza6-93" value="end" style="text;html=1;strokeColor=none;fillColor=none;align=center;verticalAlign=middle;whiteSpace=wrap;rounded=0;" vertex="1" parent="1">
          <mxGeometry x="451" y="1110" width="37" height="20" as="geometry" />
        </mxCell>
        <mxCell id="7k5Ew4gkaEUzjefBMza6-101" style="edgeStyle=orthogonalEdgeStyle;rounded=0;orthogonalLoop=1;jettySize=auto;html=1;exitX=1;exitY=0.5;exitDx=0;exitDy=0;entryX=0;entryY=0.5;entryDx=0;entryDy=0;" edge="1" parent="1" source="7k5Ew4gkaEUzjefBMza6-98" target="7k5Ew4gkaEUzjefBMza6-80">
          <mxGeometry relative="1" as="geometry" />
        </mxCell>
        <mxCell id="7k5Ew4gkaEUzjefBMza6-104" style="edgeStyle=orthogonalEdgeStyle;rounded=0;orthogonalLoop=1;jettySize=auto;html=1;exitX=0.5;exitY=1;exitDx=0;exitDy=0;entryX=0.5;entryY=0;entryDx=0;entryDy=0;" edge="1" parent="1" source="7k5Ew4gkaEUzjefBMza6-98" target="7k5Ew4gkaEUzjefBMza6-103">
          <mxGeometry relative="1" as="geometry" />
        </mxCell>
        <mxCell id="7k5Ew4gkaEUzjefBMza6-98" value="" style="rhombus;whiteSpace=wrap;html=1;" vertex="1" parent="1">
          <mxGeometry x="279.5" y="870" width="80" height="80" as="geometry" />
        </mxCell>
        <mxCell id="7k5Ew4gkaEUzjefBMza6-99" value="本行卡" style="text;html=1;strokeColor=none;fillColor=none;align=center;verticalAlign=middle;whiteSpace=wrap;rounded=0;" vertex="1" parent="1">
          <mxGeometry x="299.5" y="900" width="40" height="20" as="geometry" />
        </mxCell>
        <mxCell id="7k5Ew4gkaEUzjefBMza6-102" value="否" style="text;html=1;strokeColor=none;fillColor=none;align=center;verticalAlign=middle;whiteSpace=wrap;rounded=0;" vertex="1" parent="1">
          <mxGeometry x="370" y="880" width="40" height="20" as="geometry" />
        </mxCell>
        <mxCell id="7k5Ew4gkaEUzjefBMza6-113" style="edgeStyle=orthogonalEdgeStyle;rounded=0;orthogonalLoop=1;jettySize=auto;html=1;exitX=0.5;exitY=1;exitDx=0;exitDy=0;entryX=0.5;entryY=0;entryDx=0;entryDy=0;" edge="1" parent="1" source="7k5Ew4gkaEUzjefBMza6-103" target="7k5Ew4gkaEUzjefBMza6-111">
          <mxGeometry relative="1" as="geometry" />
        </mxCell>
        <mxCell id="7k5Ew4gkaEUzjefBMza6-103" value="" style="rounded=0;whiteSpace=wrap;html=1;" vertex="1" parent="1">
          <mxGeometry x="260" y="990" width="120" height="60" as="geometry" />
        </mxCell>
        <mxCell id="7k5Ew4gkaEUzjefBMza6-106" value="是" style="text;html=1;strokeColor=none;fillColor=none;align=center;verticalAlign=middle;whiteSpace=wrap;rounded=0;" vertex="1" parent="1">
          <mxGeometry x="290" y="960" width="40" height="20" as="geometry" />
        </mxCell>
        <mxCell id="7k5Ew4gkaEUzjefBMza6-109" value="是" style="text;html=1;strokeColor=none;fillColor=none;align=center;verticalAlign=middle;whiteSpace=wrap;rounded=0;" vertex="1" parent="1">
          <mxGeometry x="281.5" y="600" width="40" height="20" as="geometry" />
        </mxCell>
        <mxCell id="7k5Ew4gkaEUzjefBMza6-110" value="虚拟银行记账" style="text;html=1;strokeColor=none;fillColor=none;align=center;verticalAlign=middle;whiteSpace=wrap;rounded=0;" vertex="1" parent="1">
          <mxGeometry x="280" y="1010" width="90" height="20" as="geometry" />
        </mxCell>
        <mxCell id="7k5Ew4gkaEUzjefBMza6-116" style="edgeStyle=orthogonalEdgeStyle;rounded=0;orthogonalLoop=1;jettySize=auto;html=1;exitX=0.5;exitY=1;exitDx=0;exitDy=0;entryX=0.5;entryY=0;entryDx=0;entryDy=0;" edge="1" parent="1" source="7k5Ew4gkaEUzjefBMza6-111" target="7k5Ew4gkaEUzjefBMza6-114">
          <mxGeometry relative="1" as="geometry" />
        </mxCell>
        <mxCell id="7k5Ew4gkaEUzjefBMza6-111" value="" style="rounded=0;whiteSpace=wrap;html=1;" vertex="1" parent="1">
          <mxGeometry x="260" y="1110" width="120" height="60" as="geometry" />
        </mxCell>
        <mxCell id="7k5Ew4gkaEUzjefBMza6-112" value="批量冲正" style="text;html=1;strokeColor=none;fillColor=none;align=center;verticalAlign=middle;whiteSpace=wrap;rounded=0;" vertex="1" parent="1">
          <mxGeometry x="274.5" y="1130" width="90" height="20" as="geometry" />
        </mxCell>
        <mxCell id="7k5Ew4gkaEUzjefBMza6-119" style="edgeStyle=orthogonalEdgeStyle;rounded=0;orthogonalLoop=1;jettySize=auto;html=1;exitX=0.5;exitY=1;exitDx=0;exitDy=0;entryX=0.5;entryY=0;entryDx=0;entryDy=0;" edge="1" parent="1" source="7k5Ew4gkaEUzjefBMza6-114" target="7k5Ew4gkaEUzjefBMza6-117">
          <mxGeometry relative="1" as="geometry" />
        </mxCell>
        <mxCell id="7k5Ew4gkaEUzjefBMza6-114" value="" style="rounded=0;whiteSpace=wrap;html=1;" vertex="1" parent="1">
          <mxGeometry x="260" y="1220" width="120" height="60" as="geometry" />
        </mxCell>
        <mxCell id="7k5Ew4gkaEUzjefBMza6-115" value="电子账户交&lt;br&gt;易明细登记" style="text;html=1;strokeColor=none;fillColor=none;align=center;verticalAlign=middle;whiteSpace=wrap;rounded=0;" vertex="1" parent="1">
          <mxGeometry x="261" y="1225" width="120" height="50" as="geometry" />
        </mxCell>
        <mxCell id="7k5Ew4gkaEUzjefBMza6-124" style="edgeStyle=orthogonalEdgeStyle;rounded=0;orthogonalLoop=1;jettySize=auto;html=1;" edge="1" parent="1" source="7k5Ew4gkaEUzjefBMza6-117" target="7k5Ew4gkaEUzjefBMza6-122">
          <mxGeometry relative="1" as="geometry" />
        </mxCell>
        <mxCell id="7k5Ew4gkaEUzjefBMza6-117" value="" style="rounded=0;whiteSpace=wrap;html=1;" vertex="1" parent="1">
          <mxGeometry x="259.5" y="1330" width="120" height="60" as="geometry" />
        </mxCell>
        <mxCell id="7k5Ew4gkaEUzjefBMza6-118" value="更新电子账户&lt;br&gt;明细登记薄" style="text;html=1;strokeColor=none;fillColor=none;align=center;verticalAlign=middle;whiteSpace=wrap;rounded=0;" vertex="1" parent="1">
          <mxGeometry x="262" y="1335" width="120" height="50" as="geometry" />
        </mxCell>
        <mxCell id="7k5Ew4gkaEUzjefBMza6-127" style="edgeStyle=orthogonalEdgeStyle;rounded=0;orthogonalLoop=1;jettySize=auto;html=1;entryX=0.5;entryY=0;entryDx=0;entryDy=0;" edge="1" parent="1" source="7k5Ew4gkaEUzjefBMza6-122" target="7k5Ew4gkaEUzjefBMza6-125">
          <mxGeometry relative="1" as="geometry" />
        </mxCell>
        <mxCell id="7k5Ew4gkaEUzjefBMza6-130" style="edgeStyle=orthogonalEdgeStyle;rounded=0;orthogonalLoop=1;jettySize=auto;html=1;entryX=0;entryY=0.5;entryDx=0;entryDy=0;" edge="1" parent="1" source="7k5Ew4gkaEUzjefBMza6-122" target="7k5Ew4gkaEUzjefBMza6-129">
          <mxGeometry relative="1" as="geometry" />
        </mxCell>
        <mxCell id="7k5Ew4gkaEUzjefBMza6-122" value="" style="rhombus;whiteSpace=wrap;html=1;" vertex="1" parent="1">
          <mxGeometry x="274.63" y="1420" width="89.75" height="110" as="geometry" />
        </mxCell>
        <mxCell id="7k5Ew4gkaEUzjefBMza6-123" value="transCode=&lt;br&gt;SI_ACC80001" style="text;html=1;strokeColor=none;fillColor=none;align=center;verticalAlign=middle;whiteSpace=wrap;rounded=0;" vertex="1" parent="1">
          <mxGeometry x="265" y="1440" width="106" height="60" as="geometry" />
        </mxCell>
        <mxCell id="7k5Ew4gkaEUzjefBMza6-133" style="edgeStyle=orthogonalEdgeStyle;rounded=0;orthogonalLoop=1;jettySize=auto;html=1;exitX=0.5;exitY=1;exitDx=0;exitDy=0;entryX=0.5;entryY=0;entryDx=0;entryDy=0;" edge="1" parent="1" source="7k5Ew4gkaEUzjefBMza6-125" target="7k5Ew4gkaEUzjefBMza6-131">
          <mxGeometry relative="1" as="geometry" />
        </mxCell>
        <mxCell id="7k5Ew4gkaEUzjefBMza6-125" value="" style="rounded=0;whiteSpace=wrap;html=1;" vertex="1" parent="1">
          <mxGeometry x="259.5" y="1560" width="120" height="60" as="geometry" />
        </mxCell>
        <mxCell id="7k5Ew4gkaEUzjefBMza6-126" value="交易状态，通道&lt;br&gt;状态初始化" style="text;html=1;strokeColor=none;fillColor=none;align=center;verticalAlign=middle;whiteSpace=wrap;rounded=0;" vertex="1" parent="1">
          <mxGeometry x="262" y="1565" width="120" height="50" as="geometry" />
        </mxCell>
        <mxCell id="7k5Ew4gkaEUzjefBMza6-128" value="否" style="text;html=1;strokeColor=none;fillColor=none;align=center;verticalAlign=middle;whiteSpace=wrap;rounded=0;" vertex="1" parent="1">
          <mxGeometry x="290" y="1530" width="40" height="20" as="geometry" />
        </mxCell>
        <mxCell id="7k5Ew4gkaEUzjefBMza6-136" value="" style="edgeStyle=orthogonalEdgeStyle;rounded=0;orthogonalLoop=1;jettySize=auto;html=1;exitX=1;exitY=0.5;exitDx=0;exitDy=0;" edge="1" parent="1" source="7k5Ew4gkaEUzjefBMza6-129" target="7k5Ew4gkaEUzjefBMza6-135">
          <mxGeometry relative="1" as="geometry">
            <mxPoint x="570" y="1475" as="sourcePoint" />
          </mxGeometry>
        </mxCell>
        <mxCell id="7k5Ew4gkaEUzjefBMza6-129" value="&#xa;&#xa;&lt;span style=&quot;color: rgb(0, 0, 0); font-family: helvetica; font-size: 12px; font-style: normal; font-weight: 400; letter-spacing: normal; text-align: center; text-indent: 0px; text-transform: none; word-spacing: 0px; background-color: rgb(248, 249, 250); display: inline; float: none;&quot;&gt;交易状态，通道&lt;/span&gt;&lt;br style=&quot;color: rgb(0, 0, 0); font-family: helvetica; font-size: 12px; font-style: normal; font-weight: 400; letter-spacing: normal; text-align: center; text-indent: 0px; text-transform: none; word-spacing: 0px; background-color: rgb(248, 249, 250);&quot;&gt;&lt;span style=&quot;color: rgb(0, 0, 0); font-family: helvetica; font-size: 12px; font-style: normal; font-weight: 400; letter-spacing: normal; text-align: center; text-indent: 0px; text-transform: none; word-spacing: 0px; background-color: rgb(248, 249, 250); display: inline; float: none;&quot;&gt;状态初始化&lt;/span&gt;&#xa;&#xa;" style="rounded=0;whiteSpace=wrap;html=1;" vertex="1" parent="1">
          <mxGeometry x="420" y="1445" width="120" height="60" as="geometry" />
        </mxCell>
        <mxCell id="7k5Ew4gkaEUzjefBMza6-131" value="" style="rounded=0;whiteSpace=wrap;html=1;" vertex="1" parent="1">
          <mxGeometry x="259.5" y="1654" width="120" height="60" as="geometry" />
        </mxCell>
        <mxCell id="7k5Ew4gkaEUzjefBMza6-132" value="更新支付流水状态" style="text;html=1;strokeColor=none;fillColor=none;align=center;verticalAlign=middle;whiteSpace=wrap;rounded=0;" vertex="1" parent="1">
          <mxGeometry x="258" y="1659" width="120" height="50" as="geometry" />
        </mxCell>
        <mxCell id="7k5Ew4gkaEUzjefBMza6-134" value="是" style="text;html=1;strokeColor=none;fillColor=none;align=center;verticalAlign=middle;whiteSpace=wrap;rounded=0;" vertex="1" parent="1">
          <mxGeometry x="365" y="1450" width="40" height="20" as="geometry" />
        </mxCell>
        <mxCell id="7k5Ew4gkaEUzjefBMza6-138" style="edgeStyle=orthogonalEdgeStyle;rounded=0;orthogonalLoop=1;jettySize=auto;html=1;exitX=0.5;exitY=1;exitDx=0;exitDy=0;entryX=1;entryY=0.5;entryDx=0;entryDy=0;" edge="1" parent="1" source="7k5Ew4gkaEUzjefBMza6-135" target="7k5Ew4gkaEUzjefBMza6-126">
          <mxGeometry relative="1" as="geometry" />
        </mxCell>
        <mxCell id="7k5Ew4gkaEUzjefBMza6-135" value="" style="rounded=0;whiteSpace=wrap;html=1;" vertex="1" parent="1">
          <mxGeometry x="588" y="1445" width="120" height="60" as="geometry" />
        </mxCell>
        <mxCell id="7k5Ew4gkaEUzjefBMza6-137" value="调用线上支付系统提现" style="text;html=1;strokeColor=none;fillColor=none;align=center;verticalAlign=middle;whiteSpace=wrap;rounded=0;" vertex="1" parent="1">
          <mxGeometry x="613" y="1462.5" width="70" height="27.5" as="geometry" />
        </mxCell>
      </root>
    </mxGraphModel>
  </diagram>
</mxfile>
